<?xml version="1.0" encoding="UTF-8" standalone="no"?>
<!DOCTYPE svg PUBLIC "-//W3C//DTD SVG 1.1//EN"
 "http://www.w3.org/Graphics/SVG/1.1/DTD/svg11.dtd">
<!-- Generated by graphviz version 2.40.1 (20161225.0304)
 -->
<!-- Title: snakemake_dag Pages: 1 -->
<svg width="605pt" height="404pt"
 viewBox="0.00 0.00 605.00 404.00" xmlns="http://www.w3.org/2000/svg" xmlns:xlink="http://www.w3.org/1999/xlink">
<g id="graph0" class="graph" transform="scale(1 1) rotate(0) translate(4 400)">
<title>snakemake_dag</title>
<polygon fill="#ffffff" stroke="transparent" points="-4,4 -4,-400 601,-400 601,4 -4,4"/>
<!-- 0 -->
<g id="node1" class="node">
<title>0</title>
<path fill="none" stroke="#d85656" stroke-width="2" d="M328.5,-36C328.5,-36 268.5,-36 268.5,-36 262.5,-36 256.5,-30 256.5,-24 256.5,-24 256.5,-12 256.5,-12 256.5,-6 262.5,0 268.5,0 268.5,0 328.5,0 328.5,0 334.5,0 340.5,-6 340.5,-12 340.5,-12 340.5,-24 340.5,-24 340.5,-30 334.5,-36 328.5,-36"/>
<text text-anchor="middle" x="298.5" y="-15.5" font-family="sans" font-size="10.00" fill="#000000">samtools_call</text>
</g>
<!-- 1 -->
<g id="node2" class="node">
<title>1</title>
<path fill="none" stroke="#56d8c9" stroke-width="2" d="M155,-108C155,-108 120,-108 120,-108 114,-108 108,-102 108,-96 108,-96 108,-84 108,-84 108,-78 114,-72 120,-72 120,-72 155,-72 155,-72 161,-72 167,-78 167,-84 167,-84 167,-96 167,-96 167,-102 161,-108 155,-108"/>
<text text-anchor="middle" x="137.5" y="-87.5" font-family="sans" font-size="10.00" fill="#000000">novosort</text>
</g>
<!-- 1&#45;&gt;0 -->
<g id="edge1" class="edge">
<title>1&#45;&gt;0</title>
<path fill="none" stroke="#c0c0c0" stroke-width="2" d="M167.0299,-76.7941C189.9298,-66.5531 222.1782,-52.1315 249.0044,-40.1347"/>
<polygon fill="#c0c0c0" stroke="#c0c0c0" stroke-width="2" points="250.543,-43.2807 258.2428,-36.0032 247.6852,-36.8906 250.543,-43.2807"/>
</g>
<!-- 2 -->
<g id="node3" class="node">
<title>2</title>
<path fill="none" stroke="#56d8c9" stroke-width="2" d="M237,-108C237,-108 202,-108 202,-108 196,-108 190,-102 190,-96 190,-96 190,-84 190,-84 190,-78 196,-72 202,-72 202,-72 237,-72 237,-72 243,-72 249,-78 249,-84 249,-84 249,-96 249,-96 249,-102 243,-108 237,-108"/>
<text text-anchor="middle" x="219.5" y="-87.5" font-family="sans" font-size="10.00" fill="#000000">novosort</text>
</g>
<!-- 2&#45;&gt;0 -->
<g id="edge2" class="edge">
<title>2&#45;&gt;0</title>
<path fill="none" stroke="#c0c0c0" stroke-width="2" d="M239.435,-71.8314C248.9783,-63.1337 260.5599,-52.5783 270.9306,-43.1265"/>
<polygon fill="#c0c0c0" stroke="#c0c0c0" stroke-width="2" points="273.538,-45.4857 278.5713,-36.1628 268.8228,-40.3121 273.538,-45.4857"/>
</g>
<!-- 3 -->
<g id="node4" class="node">
<title>3</title>
<path fill="none" stroke="#56d8c9" stroke-width="2" d="M316,-108C316,-108 281,-108 281,-108 275,-108 269,-102 269,-96 269,-96 269,-84 269,-84 269,-78 275,-72 281,-72 281,-72 316,-72 316,-72 322,-72 328,-78 328,-84 328,-84 328,-96 328,-96 328,-102 322,-108 316,-108"/>
<text text-anchor="middle" x="298.5" y="-87.5" font-family="sans" font-size="10.00" fill="#000000">novosort</text>
</g>
<!-- 3&#45;&gt;0 -->
<g id="edge3" class="edge">
<title>3&#45;&gt;0</title>
<path fill="none" stroke="#c0c0c0" stroke-width="2" d="M298.5,-71.8314C298.5,-64.131 298.5,-54.9743 298.5,-46.4166"/>
<polygon fill="#c0c0c0" stroke="#c0c0c0" stroke-width="2" points="302.0001,-46.4132 298.5,-36.4133 295.0001,-46.4133 302.0001,-46.4132"/>
</g>
<!-- 4 -->
<g id="node5" class="node">
<title>4</title>
<path fill="none" stroke="#56d8c9" stroke-width="2" d="M395,-108C395,-108 360,-108 360,-108 354,-108 348,-102 348,-96 348,-96 348,-84 348,-84 348,-78 354,-72 360,-72 360,-72 395,-72 395,-72 401,-72 407,-78 407,-84 407,-84 407,-96 407,-96 407,-102 401,-108 395,-108"/>
<text text-anchor="middle" x="377.5" y="-87.5" font-family="sans" font-size="10.00" fill="#000000">novosort</text>
</g>
<!-- 4&#45;&gt;0 -->
<g id="edge4" class="edge">
<title>4&#45;&gt;0</title>
<path fill="none" stroke="#c0c0c0" stroke-width="2" d="M357.565,-71.8314C348.0217,-63.1337 336.4401,-52.5783 326.0694,-43.1265"/>
<polygon fill="#c0c0c0" stroke="#c0c0c0" stroke-width="2" points="328.1772,-40.3121 318.4287,-36.1628 323.462,-45.4857 328.1772,-40.3121"/>
</g>
<!-- 5 -->
<g id="node6" class="node">
<title>5</title>
<path fill="none" stroke="#56d8c9" stroke-width="2" d="M476,-108C476,-108 441,-108 441,-108 435,-108 429,-102 429,-96 429,-96 429,-84 429,-84 429,-78 435,-72 441,-72 441,-72 476,-72 476,-72 482,-72 488,-78 488,-84 488,-84 488,-96 488,-96 488,-102 482,-108 476,-108"/>
<text text-anchor="middle" x="458.5" y="-87.5" font-family="sans" font-size="10.00" fill="#000000">novosort</text>
</g>
<!-- 5&#45;&gt;0 -->
<g id="edge5" class="edge">
<title>5&#45;&gt;0</title>
<path fill="none" stroke="#c0c0c0" stroke-width="2" d="M428.7802,-76.6261C406.0638,-66.4037 374.2515,-52.0882 347.7496,-40.1623"/>
<polygon fill="#c0c0c0" stroke="#c0c0c0" stroke-width="2" points="349.1762,-36.9663 338.6207,-36.0543 346.3036,-43.3497 349.1762,-36.9663"/>
</g>
<!-- 6 -->
<g id="node7" class="node">
<title>6</title>
<path fill="none" stroke="#c6d856" stroke-width="2" d="M93.5,-180C93.5,-180 53.5,-180 53.5,-180 47.5,-180 41.5,-174 41.5,-168 41.5,-168 41.5,-156 41.5,-156 41.5,-150 47.5,-144 53.5,-144 53.5,-144 93.5,-144 93.5,-144 99.5,-144 105.5,-150 105.5,-156 105.5,-156 105.5,-168 105.5,-168 105.5,-174 99.5,-180 93.5,-180"/>
<text text-anchor="middle" x="73.5" y="-159.5" font-family="sans" font-size="10.00" fill="#000000">bwa_map</text>
</g>
<!-- 6&#45;&gt;1 -->
<g id="edge6" class="edge">
<title>6&#45;&gt;1</title>
<path fill="none" stroke="#c0c0c0" stroke-width="2" d="M89.6499,-143.8314C97.1717,-135.3694 106.2565,-125.1489 114.4804,-115.8971"/>
<polygon fill="#c0c0c0" stroke="#c0c0c0" stroke-width="2" points="117.1049,-118.2127 121.1327,-108.4133 111.873,-113.5621 117.1049,-118.2127"/>
</g>
<!-- 7 -->
<g id="node8" class="node">
<title>7</title>
<path fill="none" stroke="#c6d856" stroke-width="2" d="M216.5,-180C216.5,-180 176.5,-180 176.5,-180 170.5,-180 164.5,-174 164.5,-168 164.5,-168 164.5,-156 164.5,-156 164.5,-150 170.5,-144 176.5,-144 176.5,-144 216.5,-144 216.5,-144 222.5,-144 228.5,-150 228.5,-156 228.5,-156 228.5,-168 228.5,-168 228.5,-174 222.5,-180 216.5,-180"/>
<text text-anchor="middle" x="196.5" y="-159.5" font-family="sans" font-size="10.00" fill="#000000">bwa_map</text>
</g>
<!-- 7&#45;&gt;2 -->
<g id="edge7" class="edge">
<title>7&#45;&gt;2</title>
<path fill="none" stroke="#c0c0c0" stroke-width="2" d="M202.3039,-143.8314C204.7908,-136.0463 207.7531,-126.7729 210.5125,-118.1347"/>
<polygon fill="#c0c0c0" stroke="#c0c0c0" stroke-width="2" points="213.909,-119.0041 213.618,-108.4133 207.2409,-116.874 213.909,-119.0041"/>
</g>
<!-- 8 -->
<g id="node9" class="node">
<title>8</title>
<path fill="none" stroke="#c6d856" stroke-width="2" d="M318.5,-180C318.5,-180 278.5,-180 278.5,-180 272.5,-180 266.5,-174 266.5,-168 266.5,-168 266.5,-156 266.5,-156 266.5,-150 272.5,-144 278.5,-144 278.5,-144 318.5,-144 318.5,-144 324.5,-144 330.5,-150 330.5,-156 330.5,-156 330.5,-168 330.5,-168 330.5,-174 324.5,-180 318.5,-180"/>
<text text-anchor="middle" x="298.5" y="-159.5" font-family="sans" font-size="10.00" fill="#000000">bwa_map</text>
</g>
<!-- 8&#45;&gt;3 -->
<g id="edge8" class="edge">
<title>8&#45;&gt;3</title>
<path fill="none" stroke="#c0c0c0" stroke-width="2" d="M298.5,-143.8314C298.5,-136.131 298.5,-126.9743 298.5,-118.4166"/>
<polygon fill="#c0c0c0" stroke="#c0c0c0" stroke-width="2" points="302.0001,-118.4132 298.5,-108.4133 295.0001,-118.4133 302.0001,-118.4132"/>
</g>
<!-- 9 -->
<g id="node10" class="node">
<title>9</title>
<path fill="none" stroke="#c6d856" stroke-width="2" d="M420.5,-180C420.5,-180 380.5,-180 380.5,-180 374.5,-180 368.5,-174 368.5,-168 368.5,-168 368.5,-156 368.5,-156 368.5,-150 374.5,-144 380.5,-144 380.5,-144 420.5,-144 420.5,-144 426.5,-144 432.5,-150 432.5,-156 432.5,-156 432.5,-168 432.5,-168 432.5,-174 426.5,-180 420.5,-180"/>
<text text-anchor="middle" x="400.5" y="-159.5" font-family="sans" font-size="10.00" fill="#000000">bwa_map</text>
</g>
<!-- 9&#45;&gt;4 -->
<g id="edge9" class="edge">
<title>9&#45;&gt;4</title>
<path fill="none" stroke="#c0c0c0" stroke-width="2" d="M394.6961,-143.8314C392.2092,-136.0463 389.2469,-126.7729 386.4875,-118.1347"/>
<polygon fill="#c0c0c0" stroke="#c0c0c0" stroke-width="2" points="389.7591,-116.874 383.382,-108.4133 383.091,-119.0041 389.7591,-116.874"/>
</g>
<!-- 10 -->
<g id="node11" class="node">
<title>10</title>
<path fill="none" stroke="#c6d856" stroke-width="2" d="M533.5,-180C533.5,-180 493.5,-180 493.5,-180 487.5,-180 481.5,-174 481.5,-168 481.5,-168 481.5,-156 481.5,-156 481.5,-150 487.5,-144 493.5,-144 493.5,-144 533.5,-144 533.5,-144 539.5,-144 545.5,-150 545.5,-156 545.5,-156 545.5,-168 545.5,-168 545.5,-174 539.5,-180 533.5,-180"/>
<text text-anchor="middle" x="513.5" y="-159.5" font-family="sans" font-size="10.00" fill="#000000">bwa_map</text>
</g>
<!-- 10&#45;&gt;5 -->
<g id="edge10" class="edge">
<title>10&#45;&gt;5</title>
<path fill="none" stroke="#c0c0c0" stroke-width="2" d="M499.6212,-143.8314C493.2864,-135.5386 485.6616,-125.557 478.7074,-116.4533"/>
<polygon fill="#c0c0c0" stroke="#c0c0c0" stroke-width="2" points="481.4175,-114.2353 472.5657,-108.4133 475.8548,-118.4847 481.4175,-114.2353"/>
</g>
<!-- 11 -->
<g id="node12" class="node">
<title>11</title>
<path fill="none" stroke="#56d87b" stroke-width="2" d="M93,-252C93,-252 12,-252 12,-252 6,-252 0,-246 0,-240 0,-240 0,-228 0,-228 0,-222 6,-216 12,-216 12,-216 93,-216 93,-216 99,-216 105,-222 105,-228 105,-228 105,-240 105,-240 105,-246 99,-252 93,-252"/>
<text text-anchor="middle" x="52.5" y="-237" font-family="sans" font-size="10.00" fill="#000000">trimmomatic</text>
<text text-anchor="middle" x="52.5" y="-226" font-family="sans" font-size="10.00" fill="#000000">sample: Sample&#45;1</text>
</g>
<!-- 11&#45;&gt;6 -->
<g id="edge11" class="edge">
<title>11&#45;&gt;6</title>
<path fill="none" stroke="#c0c0c0" stroke-width="2" d="M57.7992,-215.8314C60.0698,-208.0463 62.7746,-198.7729 65.294,-190.1347"/>
<polygon fill="#c0c0c0" stroke="#c0c0c0" stroke-width="2" points="68.6894,-190.9933 68.1295,-180.4133 61.9694,-189.0332 68.6894,-190.9933"/>
</g>
<!-- 12 -->
<g id="node13" class="node">
<title>12</title>
<path fill="none" stroke="#56d87b" stroke-width="2" d="M216,-252C216,-252 135,-252 135,-252 129,-252 123,-246 123,-240 123,-240 123,-228 123,-228 123,-222 129,-216 135,-216 135,-216 216,-216 216,-216 222,-216 228,-222 228,-228 228,-228 228,-240 228,-240 228,-246 222,-252 216,-252"/>
<text text-anchor="middle" x="175.5" y="-237" font-family="sans" font-size="10.00" fill="#000000">trimmomatic</text>
<text text-anchor="middle" x="175.5" y="-226" font-family="sans" font-size="10.00" fill="#000000">sample: Sample&#45;2</text>
</g>
<!-- 12&#45;&gt;7 -->
<g id="edge12" class="edge">
<title>12&#45;&gt;7</title>
<path fill="none" stroke="#c0c0c0" stroke-width="2" d="M180.7992,-215.8314C183.0698,-208.0463 185.7746,-198.7729 188.294,-190.1347"/>
<polygon fill="#c0c0c0" stroke="#c0c0c0" stroke-width="2" points="191.6894,-190.9933 191.1295,-180.4133 184.9694,-189.0332 191.6894,-190.9933"/>
</g>
<!-- 13 -->
<g id="node14" class="node">
<title>13</title>
<path fill="none" stroke="#56d87b" stroke-width="2" d="M339,-252C339,-252 258,-252 258,-252 252,-252 246,-246 246,-240 246,-240 246,-228 246,-228 246,-222 252,-216 258,-216 258,-216 339,-216 339,-216 345,-216 351,-222 351,-228 351,-228 351,-240 351,-240 351,-246 345,-252 339,-252"/>
<text text-anchor="middle" x="298.5" y="-237" font-family="sans" font-size="10.00" fill="#000000">trimmomatic</text>
<text text-anchor="middle" x="298.5" y="-226" font-family="sans" font-size="10.00" fill="#000000">sample: Sample&#45;4</text>
</g>
<!-- 13&#45;&gt;8 -->
<g id="edge13" class="edge">
<title>13&#45;&gt;8</title>
<path fill="none" stroke="#c0c0c0" stroke-width="2" d="M298.5,-215.8314C298.5,-208.131 298.5,-198.9743 298.5,-190.4166"/>
<polygon fill="#c0c0c0" stroke="#c0c0c0" stroke-width="2" points="302.0001,-190.4132 298.5,-180.4133 295.0001,-190.4133 302.0001,-190.4132"/>
</g>
<!-- 14 -->
<g id="node15" class="node">
<title>14</title>
<path fill="none" stroke="#56d87b" stroke-width="2" d="M462,-252C462,-252 381,-252 381,-252 375,-252 369,-246 369,-240 369,-240 369,-228 369,-228 369,-222 375,-216 381,-216 381,-216 462,-216 462,-216 468,-216 474,-222 474,-228 474,-228 474,-240 474,-240 474,-246 468,-252 462,-252"/>
<text text-anchor="middle" x="421.5" y="-237" font-family="sans" font-size="10.00" fill="#000000">trimmomatic</text>
<text text-anchor="middle" x="421.5" y="-226" font-family="sans" font-size="10.00" fill="#000000">sample: Sample&#45;3</text>
</g>
<!-- 14&#45;&gt;9 -->
<g id="edge14" class="edge">
<title>14&#45;&gt;9</title>
<path fill="none" stroke="#c0c0c0" stroke-width="2" d="M416.2008,-215.8314C413.9302,-208.0463 411.2254,-198.7729 408.706,-190.1347"/>
<polygon fill="#c0c0c0" stroke="#c0c0c0" stroke-width="2" points="412.0306,-189.0332 405.8705,-180.4133 405.3106,-190.9933 412.0306,-189.0332"/>
</g>
<!-- 15 -->
<g id="node16" class="node">
<title>15</title>
<path fill="none" stroke="#56d87b" stroke-width="2" d="M585,-252C585,-252 504,-252 504,-252 498,-252 492,-246 492,-240 492,-240 492,-228 492,-228 492,-222 498,-216 504,-216 504,-216 585,-216 585,-216 591,-216 597,-222 597,-228 597,-228 597,-240 597,-240 597,-246 591,-252 585,-252"/>
<text text-anchor="middle" x="544.5" y="-237" font-family="sans" font-size="10.00" fill="#000000">trimmomatic</text>
<text text-anchor="middle" x="544.5" y="-226" font-family="sans" font-size="10.00" fill="#000000">sample: Sample&#45;5</text>
</g>
<!-- 15&#45;&gt;10 -->
<g id="edge15" class="edge">
<title>15&#45;&gt;10</title>
<path fill="none" stroke="#c0c0c0" stroke-width="2" d="M536.6774,-215.8314C533.2891,-207.9617 529.2459,-198.5712 525.4924,-189.8533"/>
<polygon fill="#c0c0c0" stroke="#c0c0c0" stroke-width="2" points="528.5973,-188.214 521.4279,-180.4133 522.1679,-190.9822 528.5973,-188.214"/>
</g>
<!-- 16 -->
<g id="node17" class="node">
<title>16</title>
<path fill="none" stroke="#d8a456" stroke-width="2" d="M324,-324C324,-324 273,-324 273,-324 267,-324 261,-318 261,-312 261,-312 261,-300 261,-300 261,-294 267,-288 273,-288 273,-288 324,-288 324,-288 330,-288 336,-294 336,-300 336,-300 336,-312 336,-312 336,-318 330,-324 324,-324"/>
<text text-anchor="middle" x="298.5" y="-303.5" font-family="sans" font-size="10.00" fill="#000000">demultiplex</text>
</g>
<!-- 16&#45;&gt;11 -->
<g id="edge16" class="edge">
<title>16&#45;&gt;11</title>
<path fill="none" stroke="#c0c0c0" stroke-width="2" d="M260.9324,-295.0694C225.5927,-284.7792 170.9345,-268.8439 114.8197,-252.3839"/>
<polygon fill="#c0c0c0" stroke="#c0c0c0" stroke-width="2" points="115.6505,-248.9802 105.0696,-249.523 113.6795,-255.697 115.6505,-248.9802"/>
</g>
<!-- 16&#45;&gt;12 -->
<g id="edge17" class="edge">
<title>16&#45;&gt;12</title>
<path fill="none" stroke="#c0c0c0" stroke-width="2" d="M267.4619,-287.8314C251.7295,-278.6221 232.4389,-267.3301 215.5956,-257.4706"/>
<polygon fill="#c0c0c0" stroke="#c0c0c0" stroke-width="2" points="216.9265,-254.1941 206.5282,-252.1628 213.3902,-260.2352 216.9265,-254.1941"/>
</g>
<!-- 16&#45;&gt;13 -->
<g id="edge18" class="edge">
<title>16&#45;&gt;13</title>
<path fill="none" stroke="#c0c0c0" stroke-width="2" d="M298.5,-287.8314C298.5,-280.131 298.5,-270.9743 298.5,-262.4166"/>
<polygon fill="#c0c0c0" stroke="#c0c0c0" stroke-width="2" points="302.0001,-262.4132 298.5,-252.4133 295.0001,-262.4133 302.0001,-262.4132"/>
</g>
<!-- 16&#45;&gt;14 -->
<g id="edge19" class="edge">
<title>16&#45;&gt;14</title>
<path fill="none" stroke="#c0c0c0" stroke-width="2" d="M329.5381,-287.8314C345.2705,-278.6221 364.5611,-267.3301 381.4044,-257.4706"/>
<polygon fill="#c0c0c0" stroke="#c0c0c0" stroke-width="2" points="383.6098,-260.2352 390.4718,-252.1628 380.0735,-254.1941 383.6098,-260.2352"/>
</g>
<!-- 16&#45;&gt;15 -->
<g id="edge20" class="edge">
<title>16&#45;&gt;15</title>
<path fill="none" stroke="#c0c0c0" stroke-width="2" d="M336.0676,-295.0694C371.4073,-284.7792 426.0655,-268.8439 482.1803,-252.3839"/>
<polygon fill="#c0c0c0" stroke="#c0c0c0" stroke-width="2" points="483.3205,-255.697 491.9304,-249.523 481.3495,-248.9802 483.3205,-255.697"/>
</g>
<!-- 17 -->
<g id="node18" class="node">
<title>17</title>
<path fill="none" stroke="#56a2d8" stroke-width="2" d="M320.5,-396C320.5,-396 276.5,-396 276.5,-396 270.5,-396 264.5,-390 264.5,-384 264.5,-384 264.5,-372 264.5,-372 264.5,-366 270.5,-360 276.5,-360 276.5,-360 320.5,-360 320.5,-360 326.5,-360 332.5,-366 332.5,-372 332.5,-372 332.5,-384 332.5,-384 332.5,-390 326.5,-396 320.5,-396"/>
<text text-anchor="middle" x="298.5" y="-375.5" font-family="sans" font-size="10.00" fill="#000000">split_fastq</text>
</g>
<!-- 17&#45;&gt;16 -->
<g id="edge21" class="edge">
<title>17&#45;&gt;16</title>
<path fill="none" stroke="#c0c0c0" stroke-width="2" d="M298.5,-359.8314C298.5,-352.131 298.5,-342.9743 298.5,-334.4166"/>
<polygon fill="#c0c0c0" stroke="#c0c0c0" stroke-width="2" points="302.0001,-334.4132 298.5,-324.4133 295.0001,-334.4133 302.0001,-334.4132"/>
</g>
</g>
</svg>
